<svg xmlns="http://www.w3.org/2000/svg" xmlns:xlink="http://www.w3.org/1999/xlink" version="1.1" x="0px" y="0px" viewBox="0 0 66 82.5" style="enable-background:new 0 0 66 66;" xml:space="preserve"><g><path d="M17.6,53.8c-0.3,0.5-0.1,1.1,0.4,1.3c1.6,0.9,3.7,1.2,6,1.2c6.3,0,13.8-2.6,15.9-3.4c-6.8-1.5-13.8-5.3-19.4-8.8   C20.3,46.5,19.5,50.1,17.6,53.8z"/><path d="M20.5,21.5c5.3-3.5,11.9-7.2,18.5-8.7c-3.9-1.4-15.3-5-21.1-1.9c-0.5,0.3-0.7,0.9-0.4,1.3C19.3,15.7,20.2,19.1,20.5,21.5z"/><path d="M33.8,37.6c0,0,0,0.1-0.1,0.1c-0.5,0.6-0.2,1.7,0.3,2.5c0.6,1.1,1.4,1.6,1.7,1.7c0.7-0.1,3.3-1.3,5.9-2.1   c-0.3-0.8-0.5-1.7-0.6-2.5C36.6,36.5,34.2,37,33.8,37.6z"/><path d="M56.9,19.6c-6.6,7.7-6.6,19,0,26.7c4.7-4.9,8-10.8,8-13.4C65,30.4,61.6,24.5,56.9,19.6z M57.3,32.8c-0.4-0.4-0.4-1,0-1.4   c0.4-0.4,1-0.4,1.4,0c0.4,0.4,0.4,1,0,1.4C58.3,33.2,57.7,33.2,57.3,32.8z"/><path d="M55.5,18.2c-0.3-0.2-0.5-0.5-0.8-0.7c-12.2-10.8-35,6.6-40.9,11.4c-1.3-1.4-4.2-4.7-5.4-6.4c-0.2-0.2-0.4-0.4-0.7-0.4   c-0.3,0-0.5,0-0.8,0.2C3.1,25.2,1,29,1,33c0,4,2.1,7.8,5.9,10.7c0.5,0.4,1.1,0.3,1.4-0.2c1.2-1.8,4.2-5.1,5.5-6.5   c4.7,3.6,19.9,14.6,31.8,14.6c3.4,0,6.5-0.9,9.1-3.1c0.3-0.2,0.5-0.5,0.8-0.7C48.1,39.3,48.1,26.7,55.5,18.2z M45.6,43.5   c-0.3,0.4-1,0.5-1.4,0.1c-0.7-0.6-1.3-1.3-1.8-2.1c-6.1,2-7.4,3.9-9.9,0c-0.9-1.4-1.5-3.5-0.4-5c1.2-2,5.1-1.9,8.7-1.4   c0-1.4,0.2-2.9,0.6-4.3c0.2-0.5,0.7-0.8,1.3-0.7c0.5,0.2,0.8,0.7,0.7,1.3c-1.1,3.4-0.5,8.5,2.1,10.7C45.9,42.5,45.9,43.1,45.6,43.5   z"/></g><text x="0" y="81" fill="#000000" font-size="5px" font-weight="bold" font-family="'Helvetica Neue', Helvetica, Arial-Unicode, Arial, Sans-serif">Created by ProSymbols</text><text x="0" y="86" fill="#000000" font-size="5px" font-weight="bold" font-family="'Helvetica Neue', Helvetica, Arial-Unicode, Arial, Sans-serif">from the Noun Project</text></svg>